<mxfile host="app.diagrams.net" modified="2021-02-21T02:27:28.711Z" agent="5.0 (Windows NT 10.0; Win64; x64) AppleWebKit/537.36 (KHTML, like Gecko) Chrome/88.0.4324.182 Safari/537.36" etag="YTJzGT3xZ9DGdz4DiAFO" version="14.4.2" type="github">
  <diagram id="beb-eCrjfYPUfFZgy12L" name="Page-1">
    <mxGraphModel dx="1718" dy="914" grid="1" gridSize="10" guides="1" tooltips="1" connect="1" arrows="1" fold="1" page="1" pageScale="1" pageWidth="827" pageHeight="1169" math="0" shadow="0">
      <root>
        <mxCell id="psXscWrFsTwOw-1IhRec-0" />
        <mxCell id="psXscWrFsTwOw-1IhRec-1" parent="psXscWrFsTwOw-1IhRec-0" />
        <mxCell id="psXscWrFsTwOw-1IhRec-3" value="" style="endArrow=none;dashed=1;html=1;dashPattern=1 3;strokeWidth=2;" parent="psXscWrFsTwOw-1IhRec-1" edge="1">
          <mxGeometry width="50" height="50" relative="1" as="geometry">
            <mxPoint x="280" y="440" as="sourcePoint" />
            <mxPoint x="280" y="280" as="targetPoint" />
          </mxGeometry>
        </mxCell>
        <mxCell id="psXscWrFsTwOw-1IhRec-4" value="" style="endArrow=none;dashed=1;html=1;dashPattern=1 3;strokeWidth=2;" parent="psXscWrFsTwOw-1IhRec-1" edge="1">
          <mxGeometry width="50" height="50" relative="1" as="geometry">
            <mxPoint x="220" y="440" as="sourcePoint" />
            <mxPoint x="220" y="280" as="targetPoint" />
          </mxGeometry>
        </mxCell>
        <mxCell id="psXscWrFsTwOw-1IhRec-5" value="" style="endArrow=none;dashed=1;html=1;dashPattern=1 3;strokeWidth=2;" parent="psXscWrFsTwOw-1IhRec-1" edge="1">
          <mxGeometry width="50" height="50" relative="1" as="geometry">
            <mxPoint x="160" y="320" as="sourcePoint" />
            <mxPoint x="400" y="320" as="targetPoint" />
          </mxGeometry>
        </mxCell>
        <mxCell id="psXscWrFsTwOw-1IhRec-6" value="" style="endArrow=none;html=1;" parent="psXscWrFsTwOw-1IhRec-1" edge="1">
          <mxGeometry width="50" height="50" relative="1" as="geometry">
            <mxPoint x="220" y="290" as="sourcePoint" />
            <mxPoint x="160" y="320" as="targetPoint" />
          </mxGeometry>
        </mxCell>
        <mxCell id="psXscWrFsTwOw-1IhRec-7" value="" style="endArrow=none;html=1;" parent="psXscWrFsTwOw-1IhRec-1" edge="1">
          <mxGeometry width="50" height="50" relative="1" as="geometry">
            <mxPoint x="220" y="400" as="sourcePoint" />
            <mxPoint x="400" y="320" as="targetPoint" />
          </mxGeometry>
        </mxCell>
        <mxCell id="psXscWrFsTwOw-1IhRec-8" value="mid" style="text;html=1;align=center;verticalAlign=middle;resizable=0;points=[];autosize=1;" parent="psXscWrFsTwOw-1IhRec-1" vertex="1">
          <mxGeometry x="270" y="450" width="30" height="20" as="geometry" />
        </mxCell>
        <mxCell id="psXscWrFsTwOw-1IhRec-9" value="right" style="text;html=1;align=center;verticalAlign=middle;resizable=0;points=[];autosize=1;" parent="psXscWrFsTwOw-1IhRec-1" vertex="1">
          <mxGeometry x="374" y="450" width="40" height="20" as="geometry" />
        </mxCell>
        <mxCell id="psXscWrFsTwOw-1IhRec-10" value="" style="shape=crossbar;whiteSpace=wrap;html=1;rounded=1;" parent="psXscWrFsTwOw-1IhRec-1" vertex="1">
          <mxGeometry x="160" y="430" width="240" height="20" as="geometry" />
        </mxCell>
        <mxCell id="psXscWrFsTwOw-1IhRec-11" value="left" style="text;html=1;align=center;verticalAlign=middle;resizable=0;points=[];autosize=1;" parent="psXscWrFsTwOw-1IhRec-1" vertex="1">
          <mxGeometry x="140" y="450" width="30" height="20" as="geometry" />
        </mxCell>
        <mxCell id="psXscWrFsTwOw-1IhRec-30" value="" style="endArrow=none;dashed=1;html=1;dashPattern=1 3;strokeWidth=2;" parent="psXscWrFsTwOw-1IhRec-1" edge="1">
          <mxGeometry width="50" height="50" relative="1" as="geometry">
            <mxPoint x="620" y="440" as="sourcePoint" />
            <mxPoint x="620" y="280" as="targetPoint" />
          </mxGeometry>
        </mxCell>
        <mxCell id="psXscWrFsTwOw-1IhRec-31" value="" style="endArrow=none;dashed=1;html=1;dashPattern=1 3;strokeWidth=2;" parent="psXscWrFsTwOw-1IhRec-1" edge="1">
          <mxGeometry width="50" height="50" relative="1" as="geometry">
            <mxPoint x="680" y="440" as="sourcePoint" />
            <mxPoint x="680" y="280" as="targetPoint" />
          </mxGeometry>
        </mxCell>
        <mxCell id="psXscWrFsTwOw-1IhRec-32" value="" style="endArrow=none;dashed=1;html=1;dashPattern=1 3;strokeWidth=2;" parent="psXscWrFsTwOw-1IhRec-1" edge="1">
          <mxGeometry width="50" height="50" relative="1" as="geometry">
            <mxPoint x="500" y="400" as="sourcePoint" />
            <mxPoint x="740" y="400" as="targetPoint" />
          </mxGeometry>
        </mxCell>
        <mxCell id="psXscWrFsTwOw-1IhRec-33" value="" style="endArrow=none;html=1;" parent="psXscWrFsTwOw-1IhRec-1" edge="1">
          <mxGeometry width="50" height="50" relative="1" as="geometry">
            <mxPoint x="740" y="400" as="sourcePoint" />
            <mxPoint x="680" y="430" as="targetPoint" />
          </mxGeometry>
        </mxCell>
        <mxCell id="psXscWrFsTwOw-1IhRec-34" value="" style="endArrow=none;html=1;" parent="psXscWrFsTwOw-1IhRec-1" edge="1">
          <mxGeometry width="50" height="50" relative="1" as="geometry">
            <mxPoint x="500" y="400" as="sourcePoint" />
            <mxPoint x="680" y="320" as="targetPoint" />
          </mxGeometry>
        </mxCell>
        <mxCell id="psXscWrFsTwOw-1IhRec-35" value="mid" style="text;html=1;align=center;verticalAlign=middle;resizable=0;points=[];autosize=1;" parent="psXscWrFsTwOw-1IhRec-1" vertex="1">
          <mxGeometry x="610" y="450" width="30" height="20" as="geometry" />
        </mxCell>
        <mxCell id="psXscWrFsTwOw-1IhRec-36" value="right" style="text;html=1;align=center;verticalAlign=middle;resizable=0;points=[];autosize=1;" parent="psXscWrFsTwOw-1IhRec-1" vertex="1">
          <mxGeometry x="714" y="450" width="40" height="20" as="geometry" />
        </mxCell>
        <mxCell id="psXscWrFsTwOw-1IhRec-37" value="" style="shape=crossbar;whiteSpace=wrap;html=1;rounded=1;" parent="psXscWrFsTwOw-1IhRec-1" vertex="1">
          <mxGeometry x="500" y="430" width="240" height="20" as="geometry" />
        </mxCell>
        <mxCell id="psXscWrFsTwOw-1IhRec-38" value="left" style="text;html=1;align=center;verticalAlign=middle;resizable=0;points=[];autosize=1;" parent="psXscWrFsTwOw-1IhRec-1" vertex="1">
          <mxGeometry x="480" y="450" width="30" height="20" as="geometry" />
        </mxCell>
        <mxCell id="psXscWrFsTwOw-1IhRec-39" value="" style="endArrow=none;dashed=1;html=1;dashPattern=1 3;strokeWidth=2;" parent="psXscWrFsTwOw-1IhRec-1" edge="1">
          <mxGeometry width="50" height="50" relative="1" as="geometry">
            <mxPoint x="280" y="680" as="sourcePoint" />
            <mxPoint x="280" y="520" as="targetPoint" />
          </mxGeometry>
        </mxCell>
        <mxCell id="psXscWrFsTwOw-1IhRec-41" value="" style="endArrow=none;dashed=1;html=1;dashPattern=1 3;strokeWidth=2;" parent="psXscWrFsTwOw-1IhRec-1" edge="1">
          <mxGeometry width="50" height="50" relative="1" as="geometry">
            <mxPoint x="165" y="600" as="sourcePoint" />
            <mxPoint x="405" y="600" as="targetPoint" />
          </mxGeometry>
        </mxCell>
        <mxCell id="psXscWrFsTwOw-1IhRec-42" value="" style="endArrow=none;html=1;" parent="psXscWrFsTwOw-1IhRec-1" edge="1">
          <mxGeometry width="50" height="50" relative="1" as="geometry">
            <mxPoint x="280" y="550" as="sourcePoint" />
            <mxPoint x="160" y="600" as="targetPoint" />
          </mxGeometry>
        </mxCell>
        <mxCell id="psXscWrFsTwOw-1IhRec-43" value="" style="endArrow=none;html=1;" parent="psXscWrFsTwOw-1IhRec-1" edge="1">
          <mxGeometry width="50" height="50" relative="1" as="geometry">
            <mxPoint x="280" y="660" as="sourcePoint" />
            <mxPoint x="400" y="600" as="targetPoint" />
          </mxGeometry>
        </mxCell>
        <mxCell id="psXscWrFsTwOw-1IhRec-44" value="mid" style="text;html=1;align=center;verticalAlign=middle;resizable=0;points=[];autosize=1;" parent="psXscWrFsTwOw-1IhRec-1" vertex="1">
          <mxGeometry x="270" y="690" width="30" height="20" as="geometry" />
        </mxCell>
        <mxCell id="psXscWrFsTwOw-1IhRec-45" value="right" style="text;html=1;align=center;verticalAlign=middle;resizable=0;points=[];autosize=1;" parent="psXscWrFsTwOw-1IhRec-1" vertex="1">
          <mxGeometry x="374" y="690" width="40" height="20" as="geometry" />
        </mxCell>
        <mxCell id="psXscWrFsTwOw-1IhRec-46" value="" style="shape=crossbar;whiteSpace=wrap;html=1;rounded=1;" parent="psXscWrFsTwOw-1IhRec-1" vertex="1">
          <mxGeometry x="160" y="670" width="240" height="20" as="geometry" />
        </mxCell>
        <mxCell id="psXscWrFsTwOw-1IhRec-47" value="left" style="text;html=1;align=center;verticalAlign=middle;resizable=0;points=[];autosize=1;" parent="psXscWrFsTwOw-1IhRec-1" vertex="1">
          <mxGeometry x="140" y="690" width="30" height="20" as="geometry" />
        </mxCell>
        <mxCell id="psXscWrFsTwOw-1IhRec-48" value="" style="endArrow=none;dashed=1;html=1;dashPattern=1 3;strokeWidth=2;" parent="psXscWrFsTwOw-1IhRec-1" edge="1">
          <mxGeometry width="50" height="50" relative="1" as="geometry">
            <mxPoint x="620" y="680" as="sourcePoint" />
            <mxPoint x="620" y="520" as="targetPoint" />
          </mxGeometry>
        </mxCell>
        <mxCell id="psXscWrFsTwOw-1IhRec-49" value="" style="endArrow=none;dashed=1;html=1;dashPattern=1 3;strokeWidth=2;" parent="psXscWrFsTwOw-1IhRec-1" edge="1">
          <mxGeometry width="50" height="50" relative="1" as="geometry">
            <mxPoint x="505" y="600" as="sourcePoint" />
            <mxPoint x="745" y="600" as="targetPoint" />
          </mxGeometry>
        </mxCell>
        <mxCell id="psXscWrFsTwOw-1IhRec-50" value="" style="endArrow=none;html=1;" parent="psXscWrFsTwOw-1IhRec-1" edge="1">
          <mxGeometry width="50" height="50" relative="1" as="geometry">
            <mxPoint x="734" y="560" as="sourcePoint" />
            <mxPoint x="500" y="660" as="targetPoint" />
          </mxGeometry>
        </mxCell>
        <mxCell id="psXscWrFsTwOw-1IhRec-52" value="mid" style="text;html=1;align=center;verticalAlign=middle;resizable=0;points=[];autosize=1;" parent="psXscWrFsTwOw-1IhRec-1" vertex="1">
          <mxGeometry x="610" y="690" width="30" height="20" as="geometry" />
        </mxCell>
        <mxCell id="psXscWrFsTwOw-1IhRec-53" value="right" style="text;html=1;align=center;verticalAlign=middle;resizable=0;points=[];autosize=1;" parent="psXscWrFsTwOw-1IhRec-1" vertex="1">
          <mxGeometry x="714" y="690" width="40" height="20" as="geometry" />
        </mxCell>
        <mxCell id="psXscWrFsTwOw-1IhRec-54" value="" style="shape=crossbar;whiteSpace=wrap;html=1;rounded=1;" parent="psXscWrFsTwOw-1IhRec-1" vertex="1">
          <mxGeometry x="500" y="670" width="240" height="20" as="geometry" />
        </mxCell>
        <mxCell id="psXscWrFsTwOw-1IhRec-55" value="left" style="text;html=1;align=center;verticalAlign=middle;resizable=0;points=[];autosize=1;" parent="psXscWrFsTwOw-1IhRec-1" vertex="1">
          <mxGeometry x="480" y="690" width="30" height="20" as="geometry" />
        </mxCell>
        <mxCell id="SbYFYG9U4N2hSAsTKwIA-0" value="case 1" style="text;html=1;align=center;verticalAlign=middle;resizable=0;points=[];autosize=1;" vertex="1" parent="psXscWrFsTwOw-1IhRec-1">
          <mxGeometry x="260" y="480" width="50" height="20" as="geometry" />
        </mxCell>
        <mxCell id="SbYFYG9U4N2hSAsTKwIA-1" value="case 2" style="text;html=1;align=center;verticalAlign=middle;resizable=0;points=[];autosize=1;" vertex="1" parent="psXscWrFsTwOw-1IhRec-1">
          <mxGeometry x="595" y="480" width="50" height="20" as="geometry" />
        </mxCell>
        <mxCell id="SbYFYG9U4N2hSAsTKwIA-2" value="case 3" style="text;html=1;align=center;verticalAlign=middle;resizable=0;points=[];autosize=1;" vertex="1" parent="psXscWrFsTwOw-1IhRec-1">
          <mxGeometry x="250" y="720" width="50" height="20" as="geometry" />
        </mxCell>
        <mxCell id="SbYFYG9U4N2hSAsTKwIA-3" value="case 4" style="text;html=1;align=center;verticalAlign=middle;resizable=0;points=[];autosize=1;" vertex="1" parent="psXscWrFsTwOw-1IhRec-1">
          <mxGeometry x="595" y="720" width="50" height="20" as="geometry" />
        </mxCell>
      </root>
    </mxGraphModel>
  </diagram>
</mxfile>
